<!DOCTYPE svg PUBLIC "-//W3C//DTD SVG 20010904//EN" "http://www.w3.org/TR/2001/REC-SVG-20010904/DTD/svg10.dtd">
<svg version="1.0" xmlns="http://www.w3.org/2000/svg" width="1057px" height="72px" viewBox="0 0 10570 720" preserveAspectRatio="xMidYMid meet">
<g id="layer101" fill="#000000" stroke="none">
 <path d="M0 360 l0 -360 5285 0 5285 0 0 360 0 360 -5285 0 -5285 0 0 -360z"/>
 </g>
<g id="layer102" fill="#ffffff" stroke="none">
 <path d="M17 713 c12 -2 26 -17 33 -34 13 -29 54 -67 95 -85 12 -5 1070 -11 2505 -14 l2485 -5 47 -22 c26 -12 59 -33 74 -48 l26 -26 38 35 c79 71 -125 66 2594 66 1680 0 2463 3 2489 11 46 12 105 62 113 95 7 28 44 34 44 7 0 -27 -35 -78 -72 -105 -75 -56 98 -53 -2588 -58 -2288 -5 -2487 -6 -2515 -22 -40 -21 -70 -56 -82 -92 -11 -35 -31 -45 -39 -19 -15 49 -39 82 -77 104 l-42 24 -2485 5 -2485 5 -51 23 c-63 28 -104 69 -114 114 -4 18 -8 -124 -9 -319 l-1 -353 5285 0 5285 0 0 360 0 360 -5287 -1 c-2909 -1 -5278 -4 -5266 -6z"/>
 </g>

</svg>