<!DOCTYPE svg PUBLIC "-//W3C//DTD SVG 20010904//EN" "http://www.w3.org/TR/2001/REC-SVG-20010904/DTD/svg10.dtd">
<svg version="1.0" xmlns="http://www.w3.org/2000/svg" width="1057px" height="72px" viewBox="0 0 10570 720" preserveAspectRatio="xMidYMid meet">
<g id="layer101" fill="#000000" stroke="none">
 <path d="M0 360 l0 -360 5285 0 5285 0 0 360 0 360 -5285 0 -5285 0 0 -360z"/>
 </g>
<g id="layer102" fill="#404040" stroke="none">
 <path d="M1 368 c0 -227 4 -342 10 -322 11 38 50 79 104 108 l40 21 2490 5 2490 5 40 21 c49 27 74 53 84 90 8 33 41 46 41 17 0 -33 38 -82 82 -105 l43 -23 2490 -5 c1988 -4 2496 -8 2519 -18 67 -30 101 -66 120 -129 6 -18 3 -23 -11 -23 -11 1 -26 17 -38 43 -15 31 -32 48 -70 67 l-49 25 -2491 5 -2490 5 -47 28 c-26 15 -53 36 -61 47 -13 19 -14 19 -38 -6 -13 -14 -42 -36 -64 -47 l-40 -22 -2490 -5 -2490 -5 -52 -29 c-38 -21 -58 -40 -70 -67 -10 -21 -27 -40 -38 -42 -11 -2 2359 -5 5268 -6 l5287 -1 0 360 0 360 -5285 0 -5285 0 1 -352z"/>
 </g>
<g id="layer103" fill="#fefefe" stroke="none">
 <path d="M0 383 c0 -337 0 -338 19 -307 11 18 34 43 53 56 75 56 -98 53 2588 58 2288 5 2487 6 2515 22 40 21 70 56 82 92 14 43 31 43 49 -1 19 -46 40 -70 79 -92 28 -15 232 -16 2515 -21 2757 -6 2525 1 2606 -75 51 -47 71 -105 36 -105 -12 0 -24 11 -32 31 -13 29 -54 67 -95 85 -12 5 -1070 11 -2505 14 l-2485 5 -45 21 c-25 12 -57 33 -72 48 l-26 27 -26 -26 c-15 -15 -48 -36 -74 -48 l-47 -22 -2485 -5 -2485 -5 -45 -25 c-28 -15 -52 -39 -62 -60 -10 -19 -28 -38 -40 -42 -13 -3 2356 -6 5265 -7 l5287 -1 0 360 0 360 -5285 0 -5285 0 0 -337z"/>
 </g>

</svg>