<!DOCTYPE svg PUBLIC "-//W3C//DTD SVG 20010904//EN" "http://www.w3.org/TR/2001/REC-SVG-20010904/DTD/svg10.dtd">
<svg version="1.0" xmlns="http://www.w3.org/2000/svg" width="329px" height="262px" viewBox="0 0 3290 2620" preserveAspectRatio="xMidYMid meet">
<g id="layer101" fill="#000000" stroke="none">
<path d="M0 1310 l0 -1310 1645 0 1645 0 0 1310 0 1310 -1645 0 -1645 0 0 -1310z"/>
</g>
<g id="layer102" fill="#003131" stroke="none">
<path d="M0 1310 l0 -1310 1645 0 1645 0 0 70 c0 39 -2 70 -4 70 -1 0 -54 -13 -117 -29 -383 -99 -776 -118 -1159 -55 -52 9 -210 45 -350 79 -475 118 -723 144 -1065 110 -168 -17 -313 -41 -463 -79 -55 -14 -105 -26 -111 -26 -8 0 -11 361 -11 1220 l0 1220 1640 0 c1633 0 1640 0 1640 20 0 20 -7 20 -1645 20 l-1645 0 0 -1310z"/>
<path d="M40 1356 l0 -1194 104 28 c296 80 649 107 961 75 174 -18 284 -39 545 -105 261 -66 371 -87 545 -105 308 -32 588 -12 928 67 l137 32 0 1198 0 1198 -1610 0 -1610 0 0 -1194z"/>
</g>
<g id="layer103" fill="#005151" stroke="none">
<path d="M40 1360 c0 -945 3 -1190 13 -1190 6 0 52 11 102 25 193 52 458 85 686 85 257 0 451 -28 804 -117 121 -30 265 -63 320 -74 130 -25 373 -49 500 -49 199 1 488 39 700 93 l90 23 3 1197 2 1197 -1610 0 -1610 0 0 -1190z"/>
</g>
<g id="layer104" fill="#373737" stroke="none">
<path d="M0 1310 l0 -1310 1645 0 1645 0 0 71 c0 62 -2 70 -17 65 -248 -73 -549 -116 -818 -116 -263 0 -429 24 -780 112 -132 33 -287 68 -345 79 -129 24 -377 49 -488 49 -193 0 -451 -34 -691 -91 -68 -16 -127 -29 -132 -29 -5 0 -9 511 -9 1220 l0 1220 1640 0 c1633 0 1640 0 1640 20 0 20 -7 20 -1645 20 l-1645 0 0 -1310z"/>
</g>
<g id="layer105" fill="#007171" stroke="none">
<path d="M40 1360 c0 -655 3 -1190 6 -1190 3 0 58 13 122 29 224 56 427 81 662 81 280 0 464 -26 816 -116 408 -104 695 -138 982 -115 208 16 474 62 600 102 l32 11 0 1194 0 1194 -1610 0 -1610 0 0 -1190z"/>
</g>
<g id="layer106" fill="#525252" stroke="none">
<path d="M0 1310 l0 -1310 1645 0 1645 0 0 71 c0 62 -2 70 -17 65 -80 -23 -281 -69 -388 -88 -115 -20 -163 -22 -420 -22 -345 0 -414 9 -815 109 -421 105 -453 109 -815 109 -295 0 -317 -1 -455 -27 -80 -15 -196 -40 -258 -56 l-112 -29 0 1224 0 1224 1640 0 c1633 0 1640 0 1640 20 0 20 -7 20 -1645 20 l-1645 0 0 -1310z"/>
</g>
<g id="layer107" fill="#009191" stroke="none">
<path d="M40 1360 c0 -655 2 -1190 4 -1190 3 0 47 11 98 25 51 14 163 37 248 52 144 26 175 27 445 28 342 0 404 -8 815 -110 423 -105 456 -109 805 -110 349 0 448 12 768 96 l37 10 0 1194 0 1195 -1610 0 -1610 0 0 -1190z"/>
</g>
<g id="layer108" fill="#00afaf" stroke="none">
<path d="M40 1359 c0 -1129 1 -1190 18 -1185 62 18 236 58 342 77 113 21 155 23 430 24 359 0 426 -9 805 -106 127 -32 298 -71 380 -86 140 -25 169 -27 445 -27 324 0 395 8 673 75 l127 31 0 1194 0 1194 -1610 0 -1610 0 0 -1191z"/>
</g>
<g id="layer109" fill="#777777" stroke="none">
<path d="M0 1310 l0 -1310 1645 0 1645 0 0 69 0 69 -112 -29 c-62 -16 -180 -41 -263 -56 -142 -26 -167 -27 -455 -27 -357 0 -394 5 -810 109 -407 101 -472 110 -815 110 -317 0 -401 -10 -670 -76 -66 -16 -128 -31 -138 -33 -16 -4 -17 59 -17 1220 l0 1224 1640 0 c1633 0 1640 0 1640 20 0 20 -7 20 -1645 20 l-1645 0 0 -1310z"/>
</g>
<g id="layer110" fill="#00d1d1" stroke="none">
<path d="M40 1361 l0 -1189 97 25 c289 73 606 104 865 84 219 -16 355 -40 658 -116 338 -84 477 -106 721 -112 282 -8 503 16 772 84 l107 27 0 1193 0 1193 -1610 0 -1610 0 0 -1189z"/>
</g>
<g id="layer111" fill="#00e6e6" stroke="none">
<path d="M40 1361 l0 -1189 93 24 c214 55 503 94 707 94 130 0 361 -23 500 -49 58 -11 202 -44 320 -75 571 -146 955 -155 1468 -34 l132 32 0 1193 0 1193 -1610 0 -1610 0 0 -1189z"/>
</g>
<g id="layer112" fill="#ffffff" stroke="none">
<path d="M0 1310 l0 -1310 1645 0 1645 0 0 65 c0 39 -4 65 -11 65 -5 0 -63 -13 -127 -29 -224 -56 -485 -91 -686 -91 -242 0 -480 35 -811 120 -126 33 -284 68 -350 79 -401 67 -761 52 -1167 -50 -64 -16 -119 -29 -122 -29 -3 0 -6 551 -6 1225 l0 1225 1640 0 c1633 0 1640 0 1640 20 0 20 -7 20 -1645 20 l-1645 0 0 -1310z"/>
</g>


</svg>