<!DOCTYPE svg PUBLIC "-//W3C//DTD SVG 20010904//EN" "http://www.w3.org/TR/2001/REC-SVG-20010904/DTD/svg10.dtd">
<svg version="1.0" xmlns="http://www.w3.org/2000/svg" width="331px" height="256px" viewBox="0 0 3310 2560" preserveAspectRatio="xMidYMid meet">
<g id="layer101" fill="#000000" stroke="none">
 <path d="M0 1280 l0 -1280 1655 0 1655 0 0 1280 0 1280 -1655 0 -1655 0 0 -1280z"/>
 </g>
<g id="layer102" fill="#353535" stroke="none">
 <path d="M2 1278 l3 -1283 2 1223 c2 672 5 1222 7 1222 1 0 54 13 117 29 138 36 313 68 434 80 70 6 16 9 -237 10 l-328 1 2 -1282z"/>
 <path d="M1105 2549 c150 -16 280 -41 535 -104 305 -76 442 -100 657 -117 260 -19 577 12 870 86 56 14 106 26 112 26 8 0 11 -361 11 -1220 0 -807 3 -1220 10 -1220 7 0 10 433 10 1280 l0 1280 -1142 -1 c-673 -1 -1110 -5 -1063 -10z"/>
 <path d="M595 2529 c-130 -12 -272 -36 -423 -72 l-132 -31 0 -1198 0 -1198 1610 0 1610 0 0 1194 0 1194 -104 -28 c-296 -80 -649 -107 -961 -75 -174 18 -284 39 -545 105 -113 28 -250 60 -305 71 -224 44 -525 59 -750 38z"/>
 </g>
<g id="layer103" fill="#515151" stroke="none">
 <path d="M2 1278 l3 -1283 2 1222 3 1222 38 10 c204 54 364 85 507 100 59 6 -5 9 -237 10 l-318 1 2 -1282z"/>
 <path d="M1080 2553 c118 -9 338 -50 570 -108 421 -105 453 -109 815 -109 295 0 317 1 455 27 80 15 196 40 258 56 l112 29 0 -1224 c0 -809 3 -1224 10 -1224 7 0 10 433 10 1280 l0 1280 -1137 -2 c-626 -1 -1118 -3 -1093 -5z"/>
 <path d="M575 2525 c-139 -15 -312 -45 -440 -78 l-90 -23 -3 -1197 -2 -1197 1610 0 1610 0 0 1190 c0 831 -3 1190 -11 1190 -5 0 -63 -13 -127 -29 -372 -92 -757 -106 -1132 -40 -63 11 -221 47 -350 79 -129 32 -287 68 -350 79 -237 41 -484 50 -715 26z"/>
 </g>
<g id="layer104" fill="#757575" stroke="none">
 <path d="M2 1278 l3 -1283 5 1224 5 1225 110 28 c127 32 316 67 425 78 50 5 -29 8 -237 9 l-313 1 2 -1282z"/>
 <path d="M1100 2553 c111 -9 311 -48 548 -107 414 -103 473 -111 822 -110 277 0 304 2 445 28 83 15 201 40 263 55 l112 29 0 -1224 c0 -809 3 -1224 10 -1224 7 0 10 433 10 1280 l0 1280 -1127 -2 c-621 -1 -1108 -3 -1083 -5z"/>
 <path d="M585 2525 c-139 -14 -292 -41 -445 -79 l-95 -23 -3 -1197 -2 -1196 1610 0 1610 0 0 1190 c0 947 -3 1190 -13 1190 -6 0 -44 -9 -82 -20 -217 -63 -510 -95 -790 -87 -236 6 -381 29 -700 109 -295 73 -407 94 -600 113 -177 18 -311 17 -490 0z"/>
 </g>
<g id="layer105" fill="#929292" stroke="none">
 <path d="M2 1278 l3 -1283 5 1224 5 1224 125 32 c117 31 335 70 425 78 22 2 -96 4 -262 5 l-303 2 2 -1282z"/>
 <path d="M1140 2550 c120 -13 279 -45 520 -105 399 -100 561 -121 885 -112 250 7 500 46 728 113 16 5 17 -58 17 -1220 0 -811 3 -1226 10 -1226 7 0 10 433 10 1280 l0 1280 -1122 -1 c-618 -1 -1089 -5 -1048 -9z"/>
 <path d="M540 2520 c-41 -4 -125 -17 -187 -29 -100 -18 -151 -29 -275 -62 l-38 -10 0 -1194 0 -1195 1610 0 1610 0 0 1190 c0 655 -3 1190 -6 1190 -3 0 -58 -13 -122 -29 -260 -65 -350 -75 -667 -75 -345 0 -414 9 -815 109 -396 99 -449 106 -765 110 -148 2 -304 0 -345 -5z"/>
 </g>
<g id="layer106" fill="#b5b5b5" stroke="none">
 <path d="M2 1278 l3 -1283 2 1226 3 1225 153 36 c144 35 304 64 392 71 22 2 -94 4 -257 5 l-298 2 2 -1282z"/>
 <path d="M1125 2553 c97 -8 298 -49 515 -103 129 -33 287 -68 350 -79 386 -68 785 -51 1178 50 62 16 115 29 118 29 2 0 4 -551 4 -1225 0 -810 3 -1225 10 -1225 7 0 10 433 10 1280 l0 1280 -1112 -2 c-612 -1 -1095 -3 -1073 -5z"/>
 <path d="M546 2520 c-112 -13 -231 -35 -378 -71 l-128 -31 0 -1194 0 -1194 1610 0 1610 0 0 1191 c0 1129 -1 1190 -17 1185 -70 -21 -240 -58 -353 -78 -121 -21 -165 -23 -430 -23 -347 1 -405 8 -793 106 -386 97 -475 110 -782 114 -143 2 -295 0 -339 -5z"/>
 </g>
<g id="layer107" fill="#ffffff" stroke="none">
 <path d="M2 1278 l3 -1283 2 1226 3 1226 148 36 c126 31 261 56 377 70 17 2 -97 5 -252 6 l-283 1 2 -1282z"/>
 <path d="M1145 2553 c89 -8 282 -47 490 -100 278 -69 385 -90 560 -108 314 -33 656 -6 961 75 61 17 116 30 122 30 9 0 12 -298 12 -1225 0 -810 3 -1225 10 -1225 7 0 10 433 10 1280 l0 1280 -1102 -2 c-607 -1 -1085 -3 -1063 -5z"/>
 <path d="M570 2519 c-117 -11 -241 -33 -397 -71 l-133 -32 0 -1193 0 -1193 1610 0 1610 0 0 1189 0 1189 -97 -25 c-149 -37 -293 -62 -463 -78 -195 -19 -287 -19 -475 0 -201 19 -287 36 -565 105 -258 65 -410 94 -569 110 -118 11 -395 11 -521 -1z"/>
 </g>

</svg>