<!DOCTYPE svg PUBLIC "-//W3C//DTD SVG 20010904//EN" "http://www.w3.org/TR/2001/REC-SVG-20010904/DTD/svg10.dtd">
<svg version="1.0" xmlns="http://www.w3.org/2000/svg" width="330px" height="258px" viewBox="0 0 3300 2580" preserveAspectRatio="xMidYMid meet">
<g id="layer101" fill="#000000" stroke="none">
<path d="M0 1290 l0 -1290 1650 0 1650 0 0 1290 0 1290 -1650 0 -1650 0 0 -1290z"/>
</g>
<g id="layer102" fill="#313131" stroke="none">
<path d="M1 2513 c1 -58 2 -63 10 -37 11 40 53 82 93 93 26 8 21 9 -36 10 l-68 1 1 -67z"/>
<path d="M3186 2569 c42 -12 82 -54 94 -100 7 -24 9 -431 8 -1191 -3 -1109 -4 -1154 -22 -1184 -10 -17 -33 -40 -50 -50 -30 -18 -82 -19 -1549 -22 -1005 -1 -1532 1 -1557 8 -45 12 -87 52 -99 94 -8 25 -9 17 -10 -46 l-1 -78 1650 0 1650 0 0 1290 0 1290 -72 -1 c-61 -1 -68 -2 -42 -10z"/>
</g>
<g id="layer103" fill="#525252" stroke="none">
<path d="M0 2523 l0 -58 17 33 c15 31 50 62 83 75 8 3 -11 6 -42 6 l-58 1 0 -57z"/>
<path d="M3208 2563 c18 -9 43 -30 55 -47 l22 -31 0 -1185 0 -1185 -22 -31 c-49 -69 75 -64 -1630 -62 l-1538 3 -31 22 c-17 12 -38 37 -47 55 l-17 33 0 -67 0 -68 1650 0 1650 0 0 1290 0 1290 -62 0 -63 0 33 -17z"/>
<path d="M64 2516 l-34 -34 0 -1182 0 -1182 34 -34 34 -34 1547 0 1547 0 34 34 34 34 0 1182 0 1182 -34 34 -34 34 -1547 0 -1547 0 -34 -34z"/>
</g>
<g id="layer104" fill="#797979" stroke="none">
<path d="M0 2523 c1 -57 1 -57 14 -28 15 35 41 60 76 74 21 8 16 10 -32 10 l-58 1 0 -57z"/>
<path d="M3209 2562 c19 -9 44 -30 55 -45 21 -28 21 -31 21 -1217 0 -1186 0 -1189 -21 -1217 -11 -15 -36 -36 -55 -46 -32 -16 -123 -17 -1576 -15 -1541 3 -1542 3 -1570 24 -15 11 -36 36 -45 55 l-18 34 0 -67 0 -68 1650 0 1650 0 0 1290 0 1290 -62 0 -63 0 34 -18z"/>
<path d="M95 2541 c-11 -5 -29 -19 -40 -31 -20 -22 -20 -36 -20 -1211 l0 -1189 28 -27 27 -28 1555 0 1555 0 27 28 28 27 0 1190 0 1190 -28 27 -27 28 -1543 2 c-848 1 -1551 -2 -1562 -6z"/>
</g>
<g id="layer105" fill="#acacac" stroke="none">
<path d="M0 2528 l0 -53 20 33 c11 18 34 41 52 52 l33 20 -52 0 -53 0 0 -52z"/>
<path d="M3218 2560 c18 -11 41 -34 52 -52 20 -32 20 -53 20 -1208 0 -1155 0 -1176 -20 -1208 -11 -18 -34 -41 -52 -52 -33 -20 -54 -20 -1573 -20 -1519 0 -1540 0 -1573 20 -18 11 -41 34 -52 52 l-20 33 0 -62 0 -63 1650 0 1650 0 0 1290 0 1290 -57 0 -58 0 33 -20z"/>
<path d="M88 2534 c-61 -33 -58 36 -58 -1234 0 -1275 -4 -1202 60 -1235 26 -13 211 -15 1555 -15 1344 0 1529 2 1555 15 64 33 60 -40 60 1235 0 1275 4 1202 -60 1235 -26 13 -210 15 -1557 15 -1332 -1 -1532 -3 -1555 -16z"/>
</g>
<g id="layer106" fill="#cccccc" stroke="none">
<path d="M1 2528 c0 -38 3 -47 9 -33 9 23 58 70 80 78 8 3 -9 6 -37 6 l-53 1 1 -52z"/>
<path d="M3205 2570 c11 -4 34 -22 50 -40 l30 -31 0 -1199 0 -1200 -38 -37 -37 -38 -1565 0 -1564 0 -31 30 c-18 17 -36 39 -40 50 -6 14 -9 1 -9 -42 l-1 -63 1650 0 1650 0 0 1290 0 1290 -57 -1 c-41 0 -52 -3 -38 -9z"/>
<path d="M93 2534 c-67 -33 -63 39 -63 -1234 0 -1277 -4 -1202 65 -1234 30 -14 189 -16 1550 -16 1361 0 1520 2 1550 16 69 32 65 -43 65 1234 0 1277 4 1202 -65 1234 -30 14 -189 16 -1552 16 -1358 0 -1521 -2 -1550 -16z"/>
</g>
<g id="layer107" fill="#ffffff" stroke="none">
<path d="M0 2533 l0 -48 20 32 c10 17 32 39 47 47 l28 15 -47 1 -48 0 0 -47z"/>
<path d="M3227 2560 c67 -41 63 44 63 -1260 0 -1304 4 -1219 -63 -1260 -31 -20 -62 -20 -1580 -20 -1710 0 -1586 -5 -1627 63 l-20 32 0 -57 0 -58 1650 0 1650 0 0 1290 0 1290 -52 0 -53 0 32 -20z"/>
<path d="M114 2543 c-12 -2 -34 -18 -50 -34 l-29 -30 0 -1179 0 -1180 33 -32 32 -33 1545 0 1545 0 32 33 33 32 0 1180 0 1180 -33 32 -32 33 -1528 1 c-840 1 -1537 0 -1548 -3z"/>
</g>


</svg>