<?xml version="1.0" encoding="utf-8"?>
<!-- Generator: Adobe Illustrator 18.0.0, SVG Export Plug-In . SVG Version: 6.00 Build 0)  -->
<!DOCTYPE svg PUBLIC "-//W3C//DTD SVG 1.1//EN" "http://www.w3.org/Graphics/SVG/1.1/DTD/svg11.dtd">
<svg version="1.1" xmlns="http://www.w3.org/2000/svg" xmlns:xlink="http://www.w3.org/1999/xlink" x="0px" y="0px" width="2800px"
	 height="2800px" viewBox="0 0 2800 2800" enable-background="new 0 0 2800 2800" xml:space="preserve">
<g id="BACKGROUND">
	<g>
		<linearGradient id="SVGID_1_" gradientUnits="userSpaceOnUse" x1="1400" y1="-6.285518e-08" x2="1400" y2="2800">
			<stop  offset="0" style="stop-color:#F4F4F4"/>
			<stop  offset="0.2668" style="stop-color:#EBF0F4"/>
			<stop  offset="0.7089" style="stop-color:#D1E4F3"/>
			<stop  offset="1" style="stop-color:#BDDAF2"/>
		</linearGradient>
		<rect fill="url(#SVGID_1_)" width="2800" height="2800"/>
	</g>
</g>
<g id="OBJECTS">
	<linearGradient id="SVGID_2_" gradientUnits="userSpaceOnUse" x1="1404.8345" y1="98.6251" x2="1404.8345" y2="2800">
		<stop  offset="0" style="stop-color:#F4F4F4"/>
		<stop  offset="9.341034e-02" style="stop-color:#EBF0F4"/>
		<stop  offset="0.2482" style="stop-color:#D1E4F3"/>
		<stop  offset="0.3501" style="stop-color:#BDDAF2"/>
		<stop  offset="0.8611" style="stop-color:#CBE1F2"/>
		<stop  offset="1" style="stop-color:#D0E3F2"/>
	</linearGradient>
	<path fill="url(#SVGID_2_)" d="M1318,1156.3V438.3c20-6.7,35.2-25.8,35.2-48.2c0-28-22.6-50.8-50.6-50.8c-28,0-50.6,22.8-50.6,50.8
		c0,22.4,14.1,41.5,35.1,48.2v711.4l-85,84.8l-42.9-42.9c3.6-6.8,5.7-14.6,5.7-22.7c0-22.4-15.8-41.5-34.8-48.2V715.5
		c19-6.7,34.6-25.8,34.6-48.2c0-28-22.9-50.8-50.9-50.8c-28,0-50.7,22.8-50.7,50.8c0,22.4,15,41.5,35,48.2v405.2
		c-2.4,0.8-4.7,1.8-6.9,2.9l-41.6-41.6c3.5-6.9,5.4-14.6,5.4-22.8c0-22.4-14.6-41.5-34.9-48.2V438.3c20-6.7,34.8-25.8,34.8-48.2
		c0-28-22.8-50.8-50.8-50.8c-28,0-51.3,22.8-51.3,50.8c0,22.4,14.3,41.5,34.3,48.2v573.2c-19.7,7-33.8,25.8-33.8,47.9
		c0,22.1,14.1,40.9,33.8,47.9v787.1c-19.7,7-33.8,25.8-33.8,47.9c0,8.3,2,16.2,5.6,23.2l-64.4,64.4c-3,3-4.4,7.1-4.4,11.3V2800h32
		v-752.2l59.8-59.9c1.7,0.8,3.4,1.6,5.2,2.2v216.4c-19.7,7-33.8,25.8-33.8,47.9c0,22.1,14.1,40.9,33.8,47.9V2800h33v-497.4
		c2.4-0.8,4.8-1.7,7-2.8l71,70.8V2800h32v-436c0-4.2-1.9-8.3-4.9-11.3l-75.6-75.5c3.5-6.9,5.4-14.6,5.4-22.8
		c0-22.4-14.6-41.5-34.9-48.2v-215.7c20.2-6.7,34.8-25.8,34.8-48.2c0-8-1.9-15.5-5.2-22.3l75.9-76c3-3,4.4-7.1,4.4-11.3v-615.4
		c2.2-0.8,4.4-1.7,6.5-2.8l49.5,49.5V2800h32V1263.8l95.7-96.2C1316.7,1164.6,1318,1160.6,1318,1156.3z M1098,1826l-70.9,71
		c-2.3-1.2-4.6-2.2-7.1-3v-786.4c2.4-0.8,4.7-1.7,6.9-2.8l41.7,41.7c-3.4,6.8-5.3,14.4-5.3,22.5c0,22.4,14.8,41.5,34.8,48.2V1826z
		 M1944.8,1522.3c0,22.4-14.8,41.5-34.8,48.2V2800h-33V1570.5c-20-6.7-34.2-25.8-34.2-48.2c0-8.2,2.5-15.9,6-22.8l-30.5-30.5
		c-2,1-4.1,1.9-6.2,2.6v323.6c19.9,6.9,34.2,25.8,34.2,48c0,22.2-14.3,41.1-34.2,48V2800h-32v-908.3c-2.6-0.8-5-1.8-7.4-3
		c-9.8-4.9-17.7-12.9-22.6-22.6c-3.5-6.9-5.4-14.6-5.4-22.8c0-22.7,14.9-41.9,35.5-48.4v-323.2c-21-6.7-34.8-25.8-34.8-48.2
		c0-8,1.8-15.6,5-22.4l-65.3-65.2c-3-3-4.9-7.1-4.9-11.3v-313.6c-19-6.7-34.7-25.8-34.7-48.2c0-28,23-50.8,51-50.8
		c28,0,50.7,22.8,50.7,50.8c0,22.4-14,41.5-35,48.2v307l60.3,60.5c2.4-1.2,5-2.3,7.7-3.2V438.3c-21-6.7-35.1-25.8-35.1-48.2
		c0-28,22.5-50.8,50.6-50.8c28,0,51,22.8,51,50.8c0,22.4-14.5,41.5-34.5,48.2v936.9c20,6.7,34.8,25.8,34.8,48.2
		c0,8.5-2.2,16.6-5.9,23.7l29.8,29.8c2.2-1.1,4.3-2,6.3-2.8V715.5c-20-6.7-34.2-25.8-34.2-48.2c0-28,23.4-50.8,51.4-50.8
		c28,0,50.7,22.8,50.7,50.8c0,22.4-15,41.5-35,48.2v758.6C1930,1480.8,1944.8,1499.9,1944.8,1522.3z M323.1,2029.8
		c3,3,4.9,7.1,4.9,11.3V2800h-32v-752.2l-60.2-60.2c-2.2,1.1-4.4,2.1-6.8,2.8V2800h-32v-809.6c-20-6.7-34.8-25.8-34.8-48.2
		c0-8.2,2-15.9,5.4-22.7l-30.4-30.4c9.7-5,17.4-13,22.3-22.9l30.6,30.6c2.2-1.1,4.5-2.1,6.9-2.9v-637.2c-20-6.7-35-25.8-35-48.2
		c0-28,22.7-50.8,50.7-50.8c28,0,50.9,22.8,50.9,50.8c0,22.4-14.6,41.5-34.6,48.2V1894c20,6.7,34.8,25.8,34.8,48.2
		c0,8.2-2,16-5.5,22.9L323.1,2029.8z M136.6,1889.1c-2.3,1.2-3.6,2.2-7.6,3V2800H97v-907.8c-20-6.7-34.8-25.8-34.8-48.2
		c0-22.4,14.8-41.5,34.8-48.2V1632c-20-6.7-34.6-25.8-34.6-48.2c0-28,23.1-50.8,51.1-50.8c28,0,50.6,22.8,50.6,50.8
		c0,22.4-14.2,41.5-35.2,48.2v163.8c21,6.7,35.2,25.8,35.2,48.2c0,8-1.5,15.6-4.8,22.3C154.5,1876.1,146.3,1884.1,136.6,1889.1z
		 M585.8,1599.3l-30.5,30.5c3.5,6.9,5.6,14.7,5.6,23c0,22.4-14.8,41.5-34.8,48.2V2800h-33V1701.1c-2.2-0.7-4.3-1.6-6.4-2.7L426,1759
		v1041h-31V1752.4c0-4.2,1.3-8.3,4.3-11.3l64.7-64.8c-3.7-7-5.8-14.9-5.8-23.4c0-22.4,14.8-41.5,34.8-48.2v-425.5
		c-20-6.7-34.4-25.8-34.4-48.2c0-28,23.2-50.8,51.2-50.8c28,0,50.9,22.8,50.9,50.8c0,22.4-14.7,41.5-34.7,48.2v425.5
		c2.3,0.8,4.5,1.7,6.6,2.8l30.6-30.7C568.1,1586.5,576,1594.4,585.8,1599.3z M624,902v603.8c21,6.8,34.7,25.8,34.7,48.2
		c0,22.4-13.7,41.4-34.7,48.2V2800h-31V1602.2c-3-0.8-4.8-1.7-7-2.9c-9.8-4.9-17.8-12.9-22.8-22.6c-3.5-6.9-5.3-14.6-5.3-22.8
		c0-22.5,15.1-41.6,35.1-48.3V902.1c-20-6.7-35.3-25.8-35.3-48.3c0-28,22.5-50.8,50.5-50.8c28,0,50.7,22.8,50.7,50.8
		C658.9,876.2,645,895.2,624,902z M916.7,1565.2c3-3,5.3-7.1,5.3-11.3V902c20-6.7,34.3-25.8,34.3-48.2c0-28-23-50.8-51-50.8
		c-28,0-50.5,22.8-50.5,50.8c0,22.4,14.2,41.5,35.2,48.2v645.3l-60.7,60.5c-2.4-1.2-4.8-2.3-7.3-3.1v-116.9c0-4.2-1.5-8.3-4.5-11.3
		l-93.5-93.7V715.5c-5,1.7-10.4,2.6-16,2.6c0,0-0.1,0-0.1,0c5.6,0,10.9-0.9,15.9-2.6c20.2-6.7,34.8-25.8,34.8-48.2
		c0-28-22.8-50.8-50.8-50.8c-28,0-50.8,22.8-50.8,50.8c0,22.4,14.6,41.5,34.8,48.2c0.1,0,0.2,0.1,0.3,0.1v673.7
		c0,4.2,1.5,8.3,4.5,11.3l93.5,93.7v110.3c-20,6.7-34.8,25.8-34.8,48.2c0,8.4,2.1,16.2,5.7,23.2l-64.6,64.4c-3,3-5.3,7.1-5.3,11.3
		V2800h32V1758.4l60.3-60.1c2.2,1.1,4.4,2,6.7,2.8V2800h32V1701.1c20-6.7,34.8-25.8,34.8-48.2c0-8.1-1.9-15.7-5.3-22.5L916.7,1565.2
		z M693.4,716c2.8,0.8,5.7,1.4,8.7,1.8C698.9,717.4,695.8,716.8,693.4,716z M2142.9,1257.2c0,22.4-13.9,41.5-34.9,48.2V2800h-32
		V1305.4c-20-6.7-34.8-25.8-34.8-48.2c0-28,22.8-50.8,50.9-50.8C2120.1,1206.4,2142.9,1229.2,2142.9,1257.2z M2044.4,962.6
		c0,22.4-14.4,41.5-34.4,48.2V2800h-33V1010.9c-20-6.7-34.6-25.8-34.6-48.2c0-28,23-50.8,51-50.8S2044.4,934.6,2044.4,962.6z
		 M1549.8,1553.9c0,22.4-14.8,41.5-34.8,48.2V2800h-32V1602.1c-2.4-0.8-4.8-1.8-7-3l-30.9,30.9c3.5,6.9,5.4,14.6,5.4,22.8
		c0,22.2-14.4,41.2-34.4,48.1V2800h-32V1701.3c-2.6-0.8-5.1-1.8-7.5-3l-60.5,60.1V2800h-31V1751.8c0-4.2,1.6-8.3,4.6-11.3l64.7-64.8
		c-3.5-6.9-5.4-14.6-5.4-22.8c0-22.6,14.8-41.7,35.1-48.3V197.7c-21-6.7-34.9-25.8-34.9-48.2c0-28,22.7-50.8,50.7-50.8
		c28,0,50.9,22.8,50.9,50.8c0,22.4-14.7,41.5-34.7,48.2v1407.1c2.2,0.8,4.4,1.6,6.4,2.7l31-31c-3.4-6.8-5.3-14.4-5.3-22.5
		c0-22.4,14.8-41.5,34.8-48.2V438.3c-20-6.7-35-25.8-35-48.2c0-28,22.6-50.8,50.7-50.8s50.9,22.8,50.9,50.8
		c0,22.4-14.6,41.5-34.6,48.2v1067.4C1535,1512.4,1549.8,1531.5,1549.8,1553.9z M1772.2,1888.7L1613,2047.8V2800h-32v-758.9V715.5
		c-20-6.7-34.6-25.8-34.6-48.2c0-28,23-50.8,51-50.8c28,0,50.7,22.8,50.7,50.8c0,22.4-14.1,41.5-35.1,48.2v1287l136.7-136.4
		C1754.6,1875.8,1762.4,1883.8,1772.2,1888.7z M2747.5,1257.2c0,22.4-14.5,41.5-34.5,48.2v511.3c0,4.2-2,8.3-5,11.3l-65.2,64.8
		c3.5,6.9,5.4,14.6,5.4,22.8c0,22.5-14.8,41.6-35.1,48.3V2800h-32v-836.2c-2.3-0.8-4.6-1.7-6.8-2.8l-71.2,70.8V2800h-32v-774.7
		c0-4.2,2.1-8.3,5.1-11.3l75.9-75.5c-3.5-6.9-5.4-14.6-5.4-22.8c0-22.2,14.4-41.1,34.3-48v-215.9c-20-6.7-34.7-25.8-34.7-48.2
		c0-8.2,2.1-15.9,5.5-22.8l-75.7-75.5c-3-3-5.1-7.1-5.1-11.3V715.5c-20-6.7-34.5-25.8-34.5-48.2c0-28,23.1-50.8,51.1-50.8
		c28,0,50.6,22.8,50.6,50.8c0,22.4-14.2,41.5-35.2,48.2v771.7l71,70.8c2.2-1.1,5-2,7-2.8v-544.4c-20-6.7-34.7-25.8-34.7-48.2
		c0-28,22.9-50.8,51-50.8s50.7,22.8,50.7,50.8c0,22.4-15,41.5-35,48.2v544.4c20,6.7,34.8,25.8,34.8,48.2c0,22.4-14.8,41.5-34.8,48.2
		v215.5c2.6,0.8,5.1,1.8,7.5,3l60.5-60.1v-504.7c-21-6.7-35.1-25.8-35.1-48.2c0-28,22.5-50.8,50.6-50.8
		C2724.5,1206.4,2747.5,1229.2,2747.5,1257.2z M2439.8,1149.1c0,22.4-14.8,41.5-34.8,48.2v651.9c0,4.2-1.7,8.3-4.7,11.3l-64.9,64.8
		c3.5,6.9,5.4,14.6,5.4,22.8c0,22.4-14.6,41.5-34.8,48.2V2800h-32v-803.6c-2.4-0.8-4.6-1.7-6.8-2.8l-60.2,60.1V2800h-32v-752.9
		c0-4.2,1.7-8.3,4.7-11.3l64.9-64.8c-3.5-6.9-5.3-14.6-5.3-22.8c0-22.3,14.6-41.4,34.7-48.1v-110.4l-93.5-93.7
		c-3-3-4.5-7.1-4.5-11.3V1011c-20-6.6-35.5-25.8-35.5-48.4c0-28,22.6-50.8,50.7-50.8s50.9,22.8,50.9,50.8c0,22.2-14.1,41.2-34.1,48
		V1678l93.5,93.7c3,3,4.5,7.1,4.5,11.3v116.8c2.5,0.8,5,1.8,7.3,2.9l60.7-60.1v-645.3c-21-6.7-35.4-25.8-35.4-48.2
		c0-28,22.2-50.8,50.3-50.8C2416.9,1098.3,2439.8,1121.1,2439.8,1149.1z"/>
	<g>
		<g>
			<path fill="#FFFFFF" d="M1061.9,542.2c0-18-14.6-32.6-32.6-32.6c-18,0-32.6,14.6-32.6,32.6c0,18,14.6,32.6,32.6,32.6
				C1047.3,574.8,1061.9,560.2,1061.9,542.2z"/>
			<path fill="#FFCC4E" d="M1076.8,542.2c0-26.3-21.3-47.6-47.5-47.6c-26.3,0-47.7,21.4-47.7,47.6c0,21,13.5,38.9,32.5,45.2V2800h30
				V587.4C1063,581.1,1076.8,563.2,1076.8,542.2z M996.7,542.2c0-18,14.6-32.6,32.6-32.6c18,0,32.6,14.6,32.6,32.6
				c0,18-14.6,32.6-32.6,32.6C1011.3,574.8,996.7,560.2,996.7,542.2z"/>
		</g>
		<g>
			<path fill="#FFFFFF" d="M1029.3,1201.8c18,0,32.6-14.6,32.6-32.6c0-18-14.6-32.6-32.6-32.6c-18,0-32.6,14.6-32.6,32.6
				C996.7,1187.2,1011.3,1201.8,1029.3,1201.8z"/>
			<path fill="#FFFFFF" d="M1341.7,542.2c0-18-14.6-32.6-32.6-32.6c-18,0-32.6,14.6-32.6,32.6c0,18,14.6,32.6,32.6,32.6
				C1327.1,574.8,1341.7,560.2,1341.7,542.2z"/>
			<path fill="#00A2A5" d="M1356.7,542.2c0-26.3-21.3-47.6-47.6-47.6c-26.3,0-47.7,21.4-47.7,47.6c0,21,13.6,38.9,32.6,45.2v666.5
				l-79.4,79.5l-142.8-142.8c3.2-6.4,5.1-13.7,5.1-21.3c0-26.3-21.4-47.6-47.6-47.6c-26.3,0-47.6,21.4-47.6,47.6
				c0,26.3,21.4,47.6,47.6,47.6c7.7,0,15.1-1.8,21.5-5.1l149.2,149V2800h30V1360.8l89.8-90.1c2.8-2.8,4.2-6.6,4.2-10.6V587.4
				C1343,581.1,1356.7,563.2,1356.7,542.2z M1029.3,1136.6c18,0,32.6,14.6,32.6,32.6c0,18-14.6,32.6-32.6,32.6
				c-18,0-32.6-14.6-32.6-32.6C996.7,1151.3,1011.3,1136.6,1029.3,1136.6z M1309.1,574.8c-18,0-32.6-14.6-32.6-32.6
				c0-18,14.6-32.6,32.6-32.6c18,0,32.6,14.6,32.6,32.6C1341.7,560.2,1327.1,574.8,1309.1,574.8z"/>
		</g>
		<g>
			<path fill="#FFFFFF" d="M1164.6,1271.9c0-18-14.6-32.6-32.6-32.6c-18,0-32.6,14.6-32.6,32.6c0,18,14.6,32.6,32.6,32.6
				C1150,1304.5,1164.6,1289.9,1164.6,1271.9z"/>
			<path fill="#EE3D96" d="M1147,1226.7V847.1c19-6.3,32.6-24.2,32.6-45.2c0-26.3-21.4-47.6-47.6-47.6c-26.3,0-47.6,21.4-47.6,47.6
				c0,21,13.6,38.9,32.6,45.2v379.6c-19,6.3-32.6,24.2-32.6,45.2c0,21,13.6,38.9,32.6,45.2v570.4l-190.8,191
				c-2.8,2.8-4.2,6.6-4.2,10.6v711h30v-704.8l190.8-191c2.8-2.8,4.2-6.6,4.2-10.6v-576.6c19-6.3,32.6-24.2,32.6-45.2
				C1179.6,1250.9,1166,1233,1147,1226.7z M1099.4,1271.9c0-18,14.6-32.6,32.6-32.6c18,0,32.6,14.6,32.6,32.6
				c0,18-14.6,32.6-32.6,32.6C1114,1304.5,1099.4,1289.9,1099.4,1271.9z M1164.6,801.9c0,18-14.6,32.6-32.6,32.6
				c-18,0-32.6-14.6-32.6-32.6c0-18,14.6-32.6,32.6-32.6C1150,769.3,1164.6,784,1164.6,801.9z"/>
			<path fill="#FFFFFF" d="M1099.4,801.9c0,18,14.6,32.6,32.6,32.6c18,0,32.6-14.6,32.6-32.6c0-18-14.6-32.6-32.6-32.6
				C1114,769.3,1099.4,784,1099.4,801.9z"/>
		</g>
		<g>
			<path fill="#FFFFFF" d="M2554.7,1679c0-18-14.6-32.6-32.6-32.6s-32.6,14.6-32.6,32.6s14.6,32.6,32.6,32.6
				S2554.7,1697,2554.7,1679z"/>
			<path fill="#FFCC4E" d="M2537,1633.8v-510c19-6.3,32.7-24.2,32.7-45.2c0-26.3-21.3-47.6-47.6-47.6s-47.7,21.4-47.7,47.6
				c0,21,13.6,38.9,32.6,45.2v510c-2,0.7-4.5,1.6-6.5,2.6l-66.5-66.4v-723c19-6.3,32.8-24.2,32.8-45.2c0-26.3-21.3-47.6-47.5-47.6
				c-26.3,0-47.8,21.4-47.8,47.6c0,21,13.5,38.9,32.5,45.2v729.2c0,4,1.8,7.8,4.6,10.6l70.9,70.8c-3.2,6.4-5.1,13.7-5.1,21.3
				c0,21,13.6,38.9,32.6,45.2V2800h30V1724.2c19-6.3,32.6-24.2,32.6-45.2C2569.6,1658,2556,1640.1,2537,1633.8z M2419.4,769.3
				c18,0,32.6,14.6,32.6,32.6c0,18-14.6,32.6-32.6,32.6s-32.6-14.6-32.6-32.6C2386.8,784,2401.4,769.3,2419.4,769.3z M2489.5,1679
				c0-18,14.6-32.6,32.6-32.6s32.6,14.6,32.6,32.6s-14.6,32.6-32.6,32.6S2489.5,1697,2489.5,1679z M2554.7,1078.6
				c0,18-14.6,32.6-32.6,32.6s-32.6-14.6-32.6-32.6c0-18,14.6-32.6,32.6-32.6S2554.7,1060.7,2554.7,1078.6z"/>
			<path fill="#FFFFFF" d="M2419.4,834.6c18,0,32.6-14.6,32.6-32.6c0-18-14.6-32.6-32.6-32.6s-32.6,14.6-32.6,32.6
				C2386.8,819.9,2401.4,834.6,2419.4,834.6z"/>
			<path fill="#FFFFFF" d="M2489.5,1078.6c0,18,14.6,32.6,32.6,32.6s32.6-14.6,32.6-32.6c0-18-14.6-32.6-32.6-32.6
				S2489.5,1060.7,2489.5,1078.6z"/>
		</g>
		<g>
			<path fill="#EF413D" d="M2244.7,1836.6l-87.7-87.8v-625.2c19-6.4,32.1-24.2,32.1-45c0-26.3-21.4-47.6-47.6-47.6
				s-47.6,21.4-47.6,47.6c0,21.2,14.1,39.2,33.1,45.3v631.1c0,4,1.5,7.8,4.3,10.6l87.7,87.8V2800h30v-952.8
				C2249,1843.3,2247.5,1839.4,2244.7,1836.6z M2141.4,1046c18,0,32.6,14.6,32.6,32.6c0,18-14.6,32.6-32.6,32.6
				s-32.6-14.6-32.6-32.6C2108.8,1060.7,2123.4,1046,2141.4,1046z"/>
			<path fill="#FFFFFF" d="M2141.4,1111.3c18,0,32.6-14.6,32.6-32.6c0-18-14.6-32.6-32.6-32.6s-32.6,14.6-32.6,32.6
				C2108.8,1096.6,2123.4,1111.3,2141.4,1111.3z"/>
		</g>
		<g>
			<path fill="#FFFFFF" d="M1678,1111.3c18,0,32.6-14.6,32.6-32.6c0-18-14.6-32.6-32.6-32.6s-32.6,14.6-32.6,32.6
				C1645.4,1096.6,1660,1111.3,1678,1111.3z"/>
			<path fill="#FFFFFF" d="M1896,1603c0-18-14.6-32.6-32.6-32.6s-32.6,14.6-32.6,32.6s14.6,32.6,32.6,32.6S1896,1621,1896,1603z"/>
			<path fill="#00B26B" d="M1878,1557.8V847.1c19-6.3,32.8-24.2,32.8-45.2c0-26.3-21.3-47.6-47.5-47.6c-26.3,0-47.8,21.4-47.8,47.6
				c0,21,13.5,38.9,32.5,45.2v710.7c-2,0.7-4.1,1.6-6.2,2.6l-148.8-149v-287.6c19-6.3,32.6-24.2,32.6-45.2
				c0-26.3-21.4-47.6-47.6-47.6c-26.3,0-47.6,21.4-47.6,47.6c0,21,13.6,38.9,32.6,45.2v293.8c0,4,1.6,7.8,4.4,10.6l153.4,153.4
				c-3.2,6.4-5.3,13.7-5.3,21.3c0,21,13.4,38.9,32.4,45.2V2800h30V1648.2c19-6.3,32.6-24.2,32.6-45.2S1897,1564.1,1878,1557.8z
				 M1678,1046c18,0,32.6,14.6,32.6,32.6c0,18-14.6,32.6-32.6,32.6s-32.6-14.6-32.6-32.6C1645.4,1060.7,1660,1046,1678,1046z
				 M1830.8,1603c0-18,14.6-32.6,32.6-32.6s32.6,14.6,32.6,32.6s-14.6,32.6-32.6,32.6S1830.8,1621,1830.8,1603z M1896,801.9
				c0,18-14.6,32.6-32.6,32.6s-32.6-14.6-32.6-32.6c0-18,14.6-32.6,32.6-32.6S1896,784,1896,801.9z"/>
			<path fill="#FFFFFF" d="M1830.8,801.9c0,18,14.6,32.6,32.6,32.6s32.6-14.6,32.6-32.6c0-18-14.6-32.6-32.6-32.6
				S1830.8,784,1830.8,801.9z"/>
		</g>
		<g>
			<path fill="#FFFFFF" d="M1432.6,316.8c0-18-14.6-32.6-32.6-32.6c-18,0-32.6,14.6-32.6,32.6c0,18,14.6,32.6,32.6,32.6
				C1418,349.4,1432.6,334.8,1432.6,316.8z"/>
			<path fill="#333333" d="M1447.6,316.8c0-26.3-21.4-47.6-47.6-47.6s-47.6,21.4-47.6,47.6c0,21,13.7,38.9,32.6,45.2v2438h30V362
				C1433.9,355.7,1447.6,337.8,1447.6,316.8z M1367.4,316.8c0-18,14.6-32.6,32.6-32.6c18,0,32.6,14.6,32.6,32.6
				c0,18-14.6,32.6-32.6,32.6C1382,349.4,1367.4,334.8,1367.4,316.8z"/>
		</g>
		<g>
			<path fill="#F79548" d="M391.4,2078.4l-153.3-153.2c-4.5,9.2-11.8,16.7-20.9,21.4L366,2095.2V2800h30v-711
				C396,2085.1,394.2,2081.2,391.4,2078.4z"/>
			<path fill="#FFFFFF" d="M227.8,1904.3c0-18-14.6-32.6-32.6-32.6c-18,0-32.6,14.6-32.6,32.6s14.6,32.6,32.6,32.6
				C213.2,1936.9,227.8,1922.3,227.8,1904.3z"/>
			<path fill="#00A5D3" d="M238,1925.2c3.1-6.3,4.7-13.4,4.7-20.9c0-21-13.7-38.9-32.7-45.2v-153.4c19-6.3,32.7-24.2,32.7-45.2
				c0-26.3-21.3-47.6-47.6-47.6c-26.3,0-47.7,21.4-47.7,47.6c0,21,13.5,38.9,32.5,45.2v153.4c-19,6.3-32.6,24.2-32.6,45.2
				c0,21,13.6,38.9,32.6,45.2V2800h30v-850.5c3-0.8,4.7-1.7,6.9-2.8C226,1942,233.5,1934.4,238,1925.2z M195.2,1936.9
				c-18,0-32.6-14.6-32.6-32.6s14.6-32.6,32.6-32.6c18,0,32.6,14.6,32.6,32.6S213.2,1936.9,195.2,1936.9z M227.8,1660.5
				c0,18-14.6,32.6-32.6,32.6c-18,0-32.6-14.6-32.6-32.6s14.6-32.6,32.6-32.6C213.2,1627.9,227.8,1642.5,227.8,1660.5z"/>
			<path fill="#FFFFFF" d="M162.6,1660.5c0,18,14.6,32.6,32.6,32.6c18,0,32.6-14.6,32.6-32.6s-14.6-32.6-32.6-32.6
				C177.2,1627.9,162.6,1642.5,162.6,1660.5z"/>
		</g>
		<g>
			<path fill="#FFFFFF" d="M320.5,1996.4c0-18-14.6-32.6-32.6-32.6c-18,0-32.6,14.6-32.6,32.6s14.6,32.6,32.6,32.6
				C305.9,2029,320.5,2014.3,320.5,1996.4z"/>
			<path fill="#EE3D96" d="M303,1951.2v-597c19-6.3,32.6-24.2,32.6-45.2c0-26.3-21.4-47.6-47.6-47.6c-26.3,0-47.6,21.4-47.6,47.6
				c0,21,13.6,38.9,32.6,45.2v597c-19,6.3-32.6,24.2-32.6,45.2c0,21,13.6,38.9,32.6,45.2V2800h30v-758.5c19-6.3,32.6-24.2,32.6-45.2
				C335.6,1975.3,322,1957.5,303,1951.2z M255.3,1996.4c0-18,14.6-32.6,32.6-32.6c18,0,32.6,14.6,32.6,32.6s-14.6,32.6-32.6,32.6
				C269.9,2029,255.3,2014.3,255.3,1996.4z M320.5,1309c0,18-14.6,32.6-32.6,32.6c-18,0-32.6-14.6-32.6-32.6
				c0-18,14.6-32.6,32.6-32.6C305.9,1276.4,320.5,1291,320.5,1309z"/>
			<path fill="#FFFFFF" d="M255.3,1309c0,18,14.6,32.6,32.6,32.6c18,0,32.6-14.6,32.6-32.6c0-18-14.6-32.6-32.6-32.6
				C269.9,1276.4,255.3,1291,255.3,1309z"/>
		</g>
		<g>
			<path fill="#EF413D" d="M1142.6,2380.9l-70.8-70.8c3.2-6.4,5.1-13.7,5.1-21.3c0-26.3-21.4-47.6-47.6-47.6
				c-26.3,0-47.6,21.4-47.6,47.6c0,26.3,21.4,47.6,47.6,47.6c7.7,0,14.9-1.8,21.3-5.1l66.4,66.4V2800h30v-408.5
				C1147,2387.6,1145.4,2383.7,1142.6,2380.9z M1029.3,2256.2c18,0,32.6,14.6,32.6,32.6s-14.6,32.6-32.6,32.6
				c-18,0-32.6-14.6-32.6-32.6S1011.3,2256.2,1029.3,2256.2z"/>
			<path fill="#FFFFFF" d="M1029.3,2321.5c18,0,32.6-14.6,32.6-32.6s-14.6-32.6-32.6-32.6c-18,0-32.6,14.6-32.6,32.6
				S1011.3,2321.5,1029.3,2321.5z"/>
		</g>
		<g>
			<circle fill="#FFFFFF" cx="1029.3" cy="1996.4" r="40.1"/>
			<path fill="#FFCC4E" d="M1029.3,2044c-26.3,0-47.6-21.4-47.6-47.6c0-26.3,21.4-47.6,47.6-47.6c26.3,0,47.6,21.4,47.6,47.6
				C1076.9,2022.6,1055.6,2044,1029.3,2044z M1029.3,1963.7c-18,0-32.6,14.6-32.6,32.6s14.6,32.6,32.6,32.6
				c18,0,32.6-14.6,32.6-32.6S1047.3,1963.7,1029.3,1963.7z"/>
		</g>
		<g>
			<path fill="#FFFFFF" d="M1803.3,1510.3c0-18-14.6-32.6-32.6-32.6s-32.6,14.6-32.6,32.6s14.6,32.6,32.6,32.6
				S1803.3,1528.3,1803.3,1510.3z"/>
			<path fill="#6C3F99" d="M1786,1465.1V587.4c19-6.3,32.5-24.2,32.5-45.2c0-26.3-21.4-47.6-47.7-47.6c-26.3,0-47.5,21.4-47.5,47.6
				c0,21,13.7,38.9,32.7,45.2v877.8c-19,6.3-32.6,24.2-32.6,45.2s13.6,38.9,32.6,45.2V2800h30V1555.5c19-6.3,32.6-24.2,32.6-45.2
				S1805,1471.4,1786,1465.1z M1738.1,1510.3c0-18,14.6-32.6,32.6-32.6s32.6,14.6,32.6,32.6s-14.6,32.6-32.6,32.6
				S1738.1,1528.3,1738.1,1510.3z M1803.3,542.2c0,18-14.6,32.6-32.6,32.6s-32.6-14.6-32.6-32.6c0-18,14.6-32.6,32.6-32.6
				S1803.3,524.2,1803.3,542.2z"/>
			<path fill="#FFFFFF" d="M1738.1,542.2c0,18,14.6,32.6,32.6,32.6s32.6-14.6,32.6-32.6c0-18-14.6-32.6-32.6-32.6
				S1738.1,524.2,1738.1,542.2z"/>
		</g>
		<g>
			<path fill="#D71440" d="M616.3,1653.9l-153.9,154c-2.8,2.8-4.4,6.6-4.4,10.6V2800h30v-975.3l149.6-149.6
				C628.4,1670.5,620.9,1663.1,616.3,1653.9z"/>
			<path fill="#FFFFFF" d="M658.6,1600c-18,0-32.6,14.6-32.6,32.6s14.6,32.6,32.6,32.6c18,0,32.6-14.6,32.6-32.6
				S676.6,1600,658.6,1600z"/>
			<path fill="#333333" d="M674,1587.5v-565.7c19-6.3,32.3-24.2,32.3-45.1c0-26.3-21.4-47.6-47.7-47.6c-26.3,0-47.5,21.4-47.5,47.6
				c0,21.1,13.9,39,32.9,45.2v565.5c-19,6.3-32.8,24.2-32.8,45.2c0,7.7,1.8,14.9,5.1,21.4c4.6,9.1,12.1,16.6,21.2,21.2
				c2.1,1,4.2,1.9,6.4,2.7V2800h30V1677.7c19-6.3,32.5-24.2,32.5-45.1S693,1593.8,674,1587.5z M626,976.7c0-18,14.6-32.6,32.6-32.6
				c18,0,32.6,14.6,32.6,32.6c0,18-14.6,32.6-32.6,32.6C640.6,1009.3,626,994.6,626,976.7z M658.6,1665.2c-18,0-32.6-14.6-32.6-32.6
				s14.6-32.6,32.6-32.6c18,0,32.6,14.6,32.6,32.6S676.6,1665.2,658.6,1665.2z"/>
			<path fill="#FFFFFF" d="M691.2,976.7c0-18-14.6-32.6-32.6-32.6c-18,0-32.6,14.6-32.6,32.6c0,18,14.6,32.6,32.6,32.6
				C676.6,1009.3,691.2,994.6,691.2,976.7z"/>
		</g>
		<g>
			<path fill="#FFFFFF" d="M969.2,976.7c0-18-14.6-32.6-32.6-32.6c-18,0-32.6,14.6-32.6,32.6c0,18,14.6,32.6,32.6,32.6
				C954.6,1009.3,969.2,994.6,969.2,976.7z"/>
			<path fill="#A3CF62" d="M984.4,976.7c0-26.3-21.5-47.6-47.7-47.6c-26.3,0-47.5,21.4-47.5,47.6c0,21,13.8,38.9,32.8,45.2v604.5
				l-181.3,181c-2.8,2.8-4.7,6.6-4.7,10.6V2800h30v-975.8l181.3-181c2.8-2.8,4.7-6.6,4.7-10.6v-610.8
				C971,1015.5,984.4,997.7,984.4,976.7z M904,976.7c0-18,14.6-32.6,32.6-32.6c18,0,32.6,14.6,32.6,32.6c0,18-14.6,32.6-32.6,32.6
				C918.6,1009.3,904,994.6,904,976.7z"/>
		</g>
		<g>
			<path fill="#FFFFFF" d="M2081.3,1354.6c0-18-14.6-32.6-32.6-32.6s-32.6,14.6-32.6,32.6c0,18,14.6,32.6,32.6,32.6
				S2081.3,1372.6,2081.3,1354.6z"/>
			<path fill="#6C3F99" d="M2096.5,1354.6c0-26.3-21.4-47.6-47.7-47.6s-47.5,21.4-47.5,47.6c0,21,13.7,38.9,32.7,45.2V2800h30
				V1399.8C2083,1393.5,2096.5,1375.6,2096.5,1354.6z M2016.1,1354.6c0-18,14.6-32.6,32.6-32.6s32.6,14.6,32.6,32.6
				c0,18-14.6,32.6-32.6,32.6S2016.1,1372.6,2016.1,1354.6z"/>
		</g>
		<g>
			<path fill="#FFFFFF" d="M1988.7,1078.6c0-18-14.6-32.6-32.6-32.6s-32.6,14.6-32.6,32.6c0,18,14.6,32.6,32.6,32.6
				S1988.7,1096.6,1988.7,1078.6z"/>
			<path fill="#333333" d="M2003.6,1078.6c0-26.3-21.3-47.6-47.6-47.6s-47.6,21.4-47.6,47.6c0,21,13.6,38.9,32.6,45.2V2800h30
				V1123.8C1990,1117.5,2003.6,1099.7,2003.6,1078.6z M1923.4,1078.6c0-18,14.6-32.6,32.6-32.6s32.6,14.6,32.6,32.6
				c0,18-14.6,32.6-32.6,32.6S1923.4,1096.6,1923.4,1078.6z"/>
		</g>
		<g>
			<path fill="#FFFFFF" d="M598.8,1725.3c0-18-14.6-32.6-32.6-32.6c-18,0-32.6,14.6-32.6,32.6s14.6,32.6,32.6,32.6
				C584.2,1757.9,598.8,1743.2,598.8,1725.3z"/>
			<path fill="#43408E" d="M581,1680.1v-398.7c19-6.3,32.7-24.2,32.7-45.2c0-26.3-21.3-47.6-47.6-47.6c-26.3,0-47.7,21.4-47.7,47.6
				c0,21,13.5,38.9,32.5,45.2v398.7c-19,6.3-32.6,24.2-32.6,45.2s13.6,38.9,32.6,45.2V2800h30V1770.4c19-6.3,32.6-24.2,32.6-45.2
				S600,1686.4,581,1680.1z M566.2,1757.9c-18,0-32.6-14.6-32.6-32.6s14.6-32.6,32.6-32.6c18,0,32.6,14.6,32.6,32.6
				S584.2,1757.9,566.2,1757.9z M566.2,1203.6c18,0,32.6,14.6,32.6,32.6c0,18-14.6,32.6-32.6,32.6c-18,0-32.6-14.6-32.6-32.6
				C533.6,1218.3,548.2,1203.6,566.2,1203.6z"/>
			<path fill="#FFFFFF" d="M566.2,1268.8c18,0,32.6-14.6,32.6-32.6c0-18-14.6-32.6-32.6-32.6c-18,0-32.6,14.6-32.6,32.6
				C533.6,1254.2,548.2,1268.8,566.2,1268.8z"/>
		</g>
		<g>
			<path fill="#FFFFFF" d="M751.8,834.6c18,0,32.6-14.6,32.6-32.6c0-18-14.6-32.6-32.6-32.6c-18,0-32.6,14.6-32.6,32.6
				C719.2,819.9,733.8,834.6,751.8,834.6z"/>
			<path fill="#00A2A5" d="M766.8,847.1c18.9-6.3,32.6-24.2,32.6-45.2c0-26.3-21.4-47.6-47.6-47.6c-26.3,0-47.6,21.4-47.6,47.6
				c0,21,13.7,38.9,32.6,45.2c4.7,1.6,9.8,2.4,15,2.4S762.1,848.7,766.8,847.1z M751.8,769.3c18,0,32.6,14.6,32.6,32.6
				c0,18-14.6,32.6-32.6,32.6c-18,0-32.6-14.6-32.6-32.6C719.2,784,733.8,769.3,751.8,769.3z"/>
			<path fill="#FFFFFF" d="M876.6,1725.3c0-18-14.6-32.6-32.6-32.6c-18,0-32.6,14.6-32.6,32.6s14.6,32.6,32.6,32.6
				C861.9,1757.9,876.6,1743.2,876.6,1725.3z"/>
			<path fill="#00A188" d="M891.6,1725.3c0-21-13.6-38.9-32.6-45.2v-109.5c0-4-1.5-7.8-4.3-10.6l-87.7-87.8v-625
				c-5,1.6-9.8,2.4-15,2.4s-11-0.9-15-2.4v631.2c0,4,1.5,7.8,4.3,10.6l87.7,87.8v103.3c-19,6.3-32.6,24.2-32.6,45.2
				s13.6,38.9,32.6,45.2V2800h30V1770.4C878,1764.1,891.6,1746.3,891.6,1725.3z M844,1757.9c-18,0-32.6-14.6-32.6-32.6
				s14.6-32.6,32.6-32.6c18,0,32.6,14.6,32.6,32.6S861.9,1757.9,844,1757.9z"/>
		</g>
		<g>
			<path fill="#43408E" d="M1503.3,1643.2l-21.2-21.2l-60.7,60.7c-6.4-3.2-13.7-5.1-21.3-5.1c-26.3,0-47.6,21.4-47.6,47.6
				c0,7.7,1.8,14.9,5.1,21.3l-60.9,60.7c-2.8,2.8-4.6,6.6-4.6,10.6V2800h30v-975.8l56.5-56.3c6.4,3.2,13.7,5.1,21.4,5.1
				c26.3,0,47.7-21.4,47.7-47.6c0-7.7-1.8-14.9-5-21.3L1503.3,1643.2z M1432.6,1725.3c0,18-14.6,32.6-32.6,32.6
				c-18,0-32.6-14.6-32.6-32.6s14.6-32.6,32.6-32.6C1418,1692.7,1432.6,1707.3,1432.6,1725.3z"/>
			<path fill="#FFFFFF" d="M1400,1692.7c-18,0-32.6,14.6-32.6,32.6s14.6,32.6,32.6,32.6c18,0,32.6-14.6,32.6-32.6
				S1418,1692.7,1400,1692.7z"/>
		</g>
		<g>
			<path fill="#FFFFFF" d="M1525.3,1632.6c0-18-14.6-32.6-32.6-32.6s-32.6,14.6-32.6,32.6s14.6,32.6,32.6,32.6
				S1525.3,1650.6,1525.3,1632.6z"/>
			<path fill="#F79548" d="M1508,1587.4v-1000c19-6.3,32.4-24.2,32.4-45.2c0-26.3-21.4-47.6-47.7-47.6s-47.5,21.4-47.5,47.6
				c0,21,13.7,38.9,32.7,45.2v1000c-19,6.3-32.6,24.2-32.6,45.2s13.6,38.9,32.6,45.2V2800h30V1677.8c19-6.3,32.6-24.2,32.6-45.2
				S1527,1593.7,1508,1587.4z M1492.7,1665.2c-18,0-32.6-14.6-32.6-32.6s14.6-32.6,32.6-32.6s32.6,14.6,32.6,32.6
				S1510.7,1665.2,1492.7,1665.2z M1492.7,509.6c18,0,32.6,14.6,32.6,32.6c0,18-14.6,32.6-32.6,32.6s-32.6-14.6-32.6-32.6
				C1460.1,524.2,1474.7,509.6,1492.7,509.6z"/>
			<path fill="#FFFFFF" d="M1492.7,574.8c18,0,32.6-14.6,32.6-32.6c0-18-14.6-32.6-32.6-32.6s-32.6,14.6-32.6,32.6
				C1460.1,560.2,1474.7,574.8,1492.7,574.8z"/>
		</g>
		<g>
			<path fill="#D71440" d="M1728,1925l-128,127.8V847.1c19-6.3,32.8-24.2,32.8-45.2c0-26.3-21.3-47.6-47.5-47.6
				c-26.3,0-47.7,21.4-47.7,47.6c0,21,13.5,38.9,32.5,45.2V2089v711h30v-704.8l149.1-149C1740,1941.6,1732.6,1934.2,1728,1925z
				 M1585.3,769.3c18,0,32.6,14.6,32.6,32.6c0,18-14.6,32.6-32.6,32.6s-32.6-14.6-32.6-32.6C1552.7,784,1567.4,769.3,1585.3,769.3z"
				/>
			<path fill="#FFFFFF" d="M1770.7,1871.1c-18,0-32.6,14.6-32.6,32.6s14.6,32.6,32.6,32.6s32.6-14.6,32.6-32.6
				S1788.7,1871.1,1770.7,1871.1z"/>
			<path fill="#EE3D96" d="M1770.7,1856.1c-26.3,0-47.6,21.4-47.6,47.6c0,7.7,1.8,14.9,5.1,21.3c4.6,9.1,12.1,16.6,21.2,21.2
				c6.4,3.2,13.7,5.1,21.3,5.1c26.3,0,47.6-21.4,47.6-47.6C1818.3,1877.4,1797,1856.1,1770.7,1856.1z M1770.7,1936.3
				c-18,0-32.6-14.6-32.6-32.6s14.6-32.6,32.6-32.6s32.6,14.6,32.6,32.6S1788.7,1936.3,1770.7,1936.3z"/>
			<path fill="#FFFFFF" d="M1585.3,834.6c18,0,32.6-14.6,32.6-32.6c0-18-14.6-32.6-32.6-32.6s-32.6,14.6-32.6,32.6
				C1552.7,819.9,1567.4,834.6,1585.3,834.6z"/>
		</g>
		<g>
			<path fill="#FFFFFF" d="M2522.1,1938.9c-18,0-32.6,14.6-32.6,32.6s14.6,32.6,32.6,32.6s32.6-14.6,32.6-32.6
				S2540.1,1938.9,2522.1,1938.9z"/>
			<path fill="#FFFFFF" d="M2647.4,1354.6c0-18-14.6-32.6-32.6-32.6s-32.6,14.6-32.6,32.6c0,18,14.6,32.6,32.6,32.6
				S2647.4,1372.6,2647.4,1354.6z"/>
			<path fill="#EE3D96" d="M2662.5,1354.6c0-26.3-21.4-47.6-47.7-47.6s-47.5,21.4-47.5,47.6c0,21,13.7,38.9,32.7,45.2v472.8
				l-56.4,56.3c-6.4-3.2-13.7-5.1-21.4-5.1c-26.3,0-47.6,21.4-47.6,47.6c0,7.7,1.8,14.9,5.1,21.3l-71,70.8
				c-2.8,2.8-4.6,6.6-4.6,10.6V2800h30v-719.6l66.6-66.4c6.4,3.2,13.8,5.1,21.4,5.1c26.3,0,47.7-21.4,47.7-47.6
				c0-7.7-1.8-14.9-5-21.3l60.9-60.7c2.8-2.8,4.5-6.6,4.5-10.6v-479C2649,1393.5,2662.5,1375.6,2662.5,1354.6z M2554.7,1971.5
				c0,18-14.6,32.6-32.6,32.6s-32.6-14.6-32.6-32.6s14.6-32.6,32.6-32.6S2554.7,1953.5,2554.7,1971.5z M2582.2,1354.6
				c0-18,14.6-32.6,32.6-32.6s32.6,14.6,32.6,32.6c0,18-14.6,32.6-32.6,32.6S2582.2,1372.6,2582.2,1354.6z"/>
		</g>
		<g>
			<path fill="#FFFFFF" d="M2234.1,1969.3c-18,0-32.6,14.6-32.6,32.6s14.6,32.6,32.6,32.6s32.6-14.6,32.6-32.6
				S2252.1,1969.3,2234.1,1969.3z"/>
			<path fill="#FFFFFF" d="M2359.4,1253.4c0-18-14.6-32.6-32.6-32.6s-32.6,14.6-32.6,32.6c0,18,14.6,32.6,32.6,32.6
				S2359.4,1271.3,2359.4,1253.4z"/>
			<path fill="#00A5D3" d="M2374.5,1253.4c0-26.3-21.4-47.6-47.7-47.6c-26.3,0-47.5,21.4-47.5,47.6c0,21,13.7,38.9,32.7,45.2v604.5
				l-56.5,56.3c-6.4-3.2-13.7-5.1-21.4-5.1c-26.3,0-47.6,21.4-47.6,47.6c0,7.7,1.8,14.9,5.1,21.3l-60.9,60.7
				c-2.8,2.8-4.6,6.6-4.6,10.6V2800h30v-699.2l56.5-56.3c6.4,3.2,13.8,5.1,21.4,5.1c26.3,0,47.7-21.4,47.7-47.6
				c0-7.7-1.8-14.9-5-21.3l60.9-60.7c2.8-2.8,4.5-6.6,4.5-10.6v-610.8C2361,1292.2,2374.5,1274.4,2374.5,1253.4z M2266.7,2002
				c0,18-14.6,32.6-32.6,32.6s-32.6-14.6-32.6-32.6s14.6-32.6,32.6-32.6S2266.7,1984,2266.7,2002z M2326.7,1286
				c-18,0-32.6-14.6-32.6-32.6c0-18,14.6-32.6,32.6-32.6s32.6,14.6,32.6,32.6C2359.4,1271.3,2344.7,1286,2326.7,1286z"/>
		</g>
	</g>
</g>
</svg>
